<?xml version="1.0" encoding="utf-8"?>
<!-- Generator: Adobe Illustrator 23.0.3, SVG Export Plug-In . SVG Version: 6.00 Build 0)  -->
<svg version="1.1" id="圖層_1" xmlns="http://www.w3.org/2000/svg" xmlns:xlink="http://www.w3.org/1999/xlink" x="0px" y="0px"
	 viewBox="0 0 29.2 29.2" style="enable-background:new 0 0 29.2 29.2;" xml:space="preserve">
<style type="text/css">
	.st0{fill:#2F4871;}
</style>
<title>ramen</title>
<path class="st0" d="M26.5,15.8c0,4.3,0,8.4,0,12.7c-1.3-0.1-2.8,1-3.4-1.1c-0.1-0.2-0.7-0.3-1.1-0.2c-1.8,0.5-4.1-1.3-5.4,1.3
	c-0.2,0.4-1.7,0.1-2.6,0.2c-0.1-1-0.2-1.8-0.3-2.8c-0.8,0.2-1.6,0.3-2.5,0.5c-0.2-0.5-0.5-0.9-0.8-1.5c-3.2,0.5-6.3,1-9.6,1.6
	c-0.2-1.1-0.4-2.1-0.6-3.2c1.6-0.3,3.1-0.5,4.9-0.8c0-1.6,0-3.3,0-4.9c0-0.3-0.3-0.7-0.4-0.7c-0.3,0-0.6,0.2-0.9,0.4
	c-0.6,0.3-1.2,0.5-1.8,0.7c-0.2-0.5-0.5-1-0.6-1.5c0-3.5,0-7,0-10.6c1.3-0.1,2.5-0.1,3.9-0.2c0-1.7,0-3.4,0-5.2c1,0,1.7,0,2.7,0
	C7.9,2.1,8,3.8,8.1,5.6c1.3,0.1,2.5,0.1,3.8,0.2C12,6.9,12,8,12.1,9.4C14.3,7.9,15.8,6,17,4.1c0.3-0.5,0.6-1,0.8-1.5
	c1.2-2.4,1.2-2.4,3.9-1.7c1,4.1,4.1,6.4,7.3,8.9c-0.7,0.9-1.5,1.7-2.2,2.7c-0.5-0.2-0.9-0.4-1.3-0.7c-1,1.6-9.2,1.7-10.4,0.1
	c-0.5,0.3-1,0.6-1.5,0.9c-0.4-0.3-0.7-0.6-1.4-1.1c0,1.9,0,3.4,0,5.1c-1.5,0-2.6,0-4,0c0,1.8,0,3.4,0,5.2c0.6-0.1,1.1-0.1,1.8-0.2
	c-0.2-1-0.4-1.9-0.6-2.9c0.7-0.2,1.4-0.5,2.4-0.8c0.6,2,1.1,3.9,1.7,5.9c0.1,0,0.3,0,0.4,0c0-2.7,0-5.4,0-8.1
	C18.2,15.8,22.2,15.8,26.5,15.8z M23.3,24.1c0-1.5,0-2.8,0-4.1c0-1-0.4-1.3-1.4-1.3c-5.8,0.2-5-1.2-4.9,5c0,0.1,0.1,0.2,0.2,0.4
	C19.2,24.1,21.2,24.1,23.3,24.1z M20.3,5.5c-1.1,1.5-2.1,2.8-3.1,4.3c2.2,0,4.1,0,6.3,0C22.3,8.3,21.4,7,20.3,5.5z M9.9,11.5
	c-0.1-0.1-0.3-0.1-0.4-0.2c0-0.6,0.1-1.2,0-1.7C9.3,9.2,8.9,8.8,8.5,8.5C8.2,8.9,7.8,9.2,7.6,9.7c-0.2,0.5-0.1,1.2,0,1.7
	c0.2,0.9-0.7,2.4,1,2.5C9,13.9,9.5,12.3,9.9,11.5z M5.8,11.3c-0.4-1-0.8-2.7-1.1-2.7c-1.9,0.2-0.9,1.8-0.9,2.7
	c-0.1,0.9-0.8,2.4,0.9,2.5C4.9,13.9,5.3,12.3,5.8,11.3z"/>
</svg>
